<svg xmlns="http://www.w3.org/2000/svg" xmlns:xlink="http://www.w3.org/1999/xlink" width="628.9002" height="628.9002" viewBox="0 0 628.9002 628.9002"><defs><style>.a{fill:url(#a);}.b{fill:#fefefe;}</style><linearGradient id="a" x1="314.4501" x2="314.4501" y2="628.9002" gradientUnits="userSpaceOnUse"><stop offset="0" stop-color="#fb5c74"/><stop offset="1" stop-color="#fa243c"/></linearGradient></defs><title>apple-music-logo</title><rect class="a" width="628.9002" height="628.9002" rx="137.4038" ry="137.4038"/><path class="b" d="M282.5821,486.569c-.0879,9.0863-.4142,18.1672-2.7376,27.0065-6.043,22.99-21.2209,36.68-43.9112,42.3755a111.8706,111.8706,0,0,1-27.91,3.6375A48.6073,48.6073,0,0,1,159.8105,510.59q.0113-1.383.1011-2.7639a82.6392,82.6392,0,0,1,1.7841-11.5707c2.6011-7.4525,6.1829-14.2819,11.7792-20.0205,7.9512-8.1534,17.8729-12.5882,28.5637-15.6229,12.8919-3.6594,26.1039-5.8913,39.2165-8.556,8.0252-1.6308,14.0759-5.4617,16.1756-13.907a40.8346,40.8346,0,0,0,.7276-9.9411q-.0085-116.4715-.042-232.9432a31.6722,31.6722,0,0,1,1.1881-9.1265c2.56-8.5791,9.18-12.3013,17.2754-13.9624,20.2648-4.1582,40.5571-8.1814,60.8357-12.2724q26.6182-5.37,53.2314-10.7659,35.0362-7.06,70.08-14.0827c7.0163-1.4047,14.0058-3.1619,21.1728-3.4455,7.2753-.2879,12.5523,4.53,13.7147,11.71a43.0494,43.0494,0,0,1,.4716,6.9353q-.0225,148.2138-.01,296.4278c.0058,13.22-1.462,26.06-7.6742,37.9841-9.9185,17.3566-25.4972,26.1009-44.6737,29.4024-8.1257,1.399-16.2434,2.7565-24.5482,2.097-19.1076-1.5175-32.6607-11.1392-41.1946-28.1284-.2582-.5141-.5487-1.0121-.8241-1.5174-.2-.63-.38-1.2673-.6038-1.8887a48.4479,48.4479,0,0,1,2.0272-39.0023c6.6651-13.7511,18.0885-21.83,32.22-26.5493,13.3-4.4418,27.1411-6.5787,40.8039-9.4717,1.79-.3791,3.596-.69,5.3752-1.1154,9.9249-2.37,14.6641-8.5975,14.6675-19.3851q.0175-53.8686-.0114-107.7374c-.0019-11.4987.0436-22.9976-.0222-34.496-.0478-8.3532-4.141-11.8263-12.4206-10.7215-.3289.0439-.6508.1373-.977.2016-8.2441,1.6235-16.4951,3.2143-24.732,4.8745q-68.8437,13.8758-137.6852,27.7687c-10.5046,2.114-13.3077,5.4063-13.31,16.1063q-.0228,99.4885-.0272,198.977C282.4654,484.91,282.5414,485.74,282.5821,486.569Z" transform="translate(-35.6058 -35.5865)"/></svg>