<svg width="2033" height="1044" viewBox="0 0 2033 1044" fill="none" xmlns="http://www.w3.org/2000/svg">
<path opacity="0.8" d="M0.128693 223.184L175.565 997.789C177.53 939.829 1825.86 938.044 1855.97 997.799L2032.26 223.184L0.128693 223.184Z" fill="url(#paint0_linear_3_146)"/>
<ellipse opacity="0.4" cx="1015.77" cy="997.796" rx="840.198" ry="45.3762" fill="url(#paint1_linear_3_146)"/>
<rect width="244.982" height="9.83158" transform="matrix(-1 0 -0.197144 0.980375 1516.63 976.143)" fill="black"/>
<rect width="407.564" height="261.824" rx="15" transform="matrix(-1 0 -0.197144 0.980375 1660.05 667.191)" fill="black"/>
<rect width="62.2495" height="58.2288" transform="matrix(-1 0 -0.197144 0.980375 1435.78 923.876)" fill="black"/>
<rect width="379.923" height="232.271" transform="matrix(-1 0 -0.197144 0.980375 1643.35 681.361)" fill="url(#paint2_linear_3_146)"/>
<path fill-rule="evenodd" clip-rule="evenodd" d="M1259.53 697.212H1643.01L1646.46 681.362H1259.53L1259.53 697.212ZM1273.57 692.709C1275.46 692.709 1276.99 691.177 1276.99 689.287C1276.99 687.397 1275.46 685.865 1273.57 685.865C1271.68 685.865 1270.15 687.397 1270.15 689.287C1270.15 691.177 1271.68 692.709 1273.57 692.709ZM1290.04 689.287C1290.04 691.177 1288.5 692.709 1286.61 692.709C1284.72 692.709 1283.19 691.177 1283.19 689.287C1283.19 687.397 1284.72 685.865 1286.61 685.865C1288.5 685.865 1290.04 687.397 1290.04 689.287ZM1299.65 692.709C1301.54 692.709 1303.08 691.177 1303.08 689.287C1303.08 687.397 1301.54 685.865 1299.65 685.865C1297.76 685.865 1296.23 687.397 1296.23 689.287C1296.23 691.177 1297.76 692.709 1299.65 692.709Z" fill="black" fill-opacity="0.3"/>
<path d="M1339.86 905.774L1350.06 819.299C1405.39 802.214 1433.25 788.899 1477.89 759.142C1536.78 795.698 1552.65 843.566 1556.85 908.46L1339.86 905.774Z" fill="white"/>
<path d="M1138.5 429.404C1138.5 435.156 1135.3 457.129 1133.71 466.208L1115.84 474.487L1113.44 467.515C1113.44 467.515 1093.85 452.59 1090.57 450.085C1087.29 447.579 1080.76 440.77 1079.89 437.665C1079.02 434.56 1079.89 429.404 1084.36 429.404C1082.32 427.08 1082.13 419.065 1087.89 417.865C1084.86 412.826 1090.05 404.955 1095.14 406.29C1094.27 403.095 1092.66 397.625 1092.96 394.743C1093.27 391.86 1098.61 389.374 1102.99 389.949C1107.37 390.525 1111.91 404.431 1113.44 406.29C1114.97 408.15 1124.64 420.955 1124.64 420.955C1123.92 417.575 1127.06 408.401 1128.91 403.315C1130.71 398.393 1137.9 391.85 1140.21 393.313C1142.52 394.776 1137.64 402.613 1137.32 411.66C1137.02 419.988 1138.5 426.647 1138.5 429.404Z" fill="#FFC4A2"/>
<path d="M1112.87 413.336C1090.65 408.997 1102.19 333.13 1108.65 296.681L1160.66 306.836C1153.51 343.477 1135.09 417.675 1112.87 413.336Z" fill="white"/>
<path d="M1108.61 314.014C1100.47 355.688 1098.14 405.06 1113.65 408.089C1129.16 411.117 1145.46 368.724 1154.06 322.889L1108.61 314.014Z" fill="url(#paint3_linear_3_146)"/>
<path d="M1126.25 317.459L1111.66 314.61C1108.69 333.936 1102.22 372.085 1108.2 373.473C1114.18 374.86 1123.41 336.767 1126.25 317.459Z" fill="url(#paint4_linear_3_146)"/>
<rect x="1110.91" y="410.034" width="5.0148" height="50.1969" transform="rotate(11.0484 1110.91 410.034)" fill="white"/>
<path d="M1083.55 461.482C1090.89 457.257 1095.75 457.728 1105.83 459.697C1111.45 461.24 1118.83 462.95 1123.76 469.333L1083.55 461.482Z" fill="white"/>
<path d="M1113.17 405.658C1113.17 405.658 1105.06 391.747 1103.58 390.632C1102.11 389.516 1100.14 389.952 1099.7 390.039C1099.19 390.139 1097.76 403.331 1096.88 406.108L1092.05 415.161L1081.79 439.181L1086.26 440.871L1094.1 444.613L1096.88 443.648L1098.21 440.871L1096.88 437.129H1101.35L1103.03 434.595L1103.03 430.249H1105.33L1106.9 428.076L1108.23 425.3L1108.23 422.645H1113.42L1115.95 420.713L1115.95 417.213L1113.17 405.658Z" fill="#FFC4A2"/>
<path d="M1112.28 406.194C1114.37 410.998 1117.9 420.024 1114.28 422.406C1112.16 423.803 1109.99 423.426 1107.87 422.064M1095.33 406.897C1098.54 410.946 1103.09 418.999 1107.87 422.064M1107.87 422.064C1108.35 423.556 1108.79 427.693 1106.23 429.586C1105.17 430.377 1103.69 430.269 1102.01 429.586M1088.61 418.585C1092.34 422.462 1097.39 427.704 1102.01 429.586M1102.01 429.586C1103 430.183 1104.72 434.298 1102.01 436.906C1098.54 440.255 1089.48 433.847 1085.08 429.968" stroke="#F3A679" stroke-width="2" stroke-linecap="round"/>
<path d="M1124.68 421.47C1114.91 428.299 1112.85 433.65 1115.87 446.17" stroke="#F3A679" stroke-width="2" stroke-linecap="round"/>
<path d="M1096.05 437.324C1097.16 438.346 1098.85 440.738 1097.72 442.754C1095.35 446.958 1085.61 440.976 1081.31 438.587" stroke="#F3A679" stroke-width="2" stroke-linecap="round"/>
<path d="M1319.96 886.09C1324.25 884.862 1348.35 891.376 1359.86 894.787L1381.58 908.379L1380.32 910.901H1338.37C1336.41 912.607 1331.57 916.682 1327.89 919.342C1335.82 925.993 1336.33 932.899 1319.96 936.225C1303.59 939.55 1286.96 929.318 1286.45 923.947C1285.94 918.575 1314.58 887.625 1319.96 886.09Z" fill="#FFC4A2"/>
<path d="M1327.67 904.288C1323.46 908.97 1313.7 919.187 1314 921.464C1314.31 923.742 1321.91 930.258 1325.87 933.136" stroke="#F3A679" stroke-width="2" stroke-linecap="round" stroke-linejoin="round"/>
<path d="M1319.79 897.551C1313.91 904.225 1300.91 919.016 1301.29 921.749C1301.67 924.482 1309.39 931.903 1313.24 935.888" stroke="#F3A679" stroke-width="2" stroke-linecap="round" stroke-linejoin="round"/>
<path d="M1295.4 917.858C1294.55 918.894 1292.14 922.299 1292.37 923.742C1292.59 925.184 1296.3 930.259 1298.3 932.726" stroke="#F3A679" stroke-width="2" stroke-linecap="round" stroke-linejoin="round"/>
<path d="M1430.63 722.619L1478.43 759.68C1452.83 777.301 1432.66 789.076 1410.74 798.769L1381.65 908.382L1359.56 894.904L1370.43 813.939C1363.74 816.115 1356.68 818.295 1349.12 820.541C1325.73 783.905 1278.01 707.124 1274.3 693.089C1270.58 679.054 1280.41 648.123 1285.79 634.412C1245.34 620.395 1170.51 598.554 1161.38 589.746C1152.24 580.939 1106.04 479.498 1106.25 476.884C1106.47 474.269 1134.57 462.493 1136.95 463.535C1138.86 464.369 1178.58 550.698 1186.78 555.577C1194.98 560.456 1352.21 575.45 1352.21 575.45C1378.35 560.411 1435.78 533.448 1456.41 545.909C1477.04 558.37 1447.82 668.908 1430.63 722.619Z" fill="#F05C80"/>
<path d="M1410.78 798.091L1430.08 723.188" stroke="black" stroke-opacity="0.2" stroke-width="2" stroke-linecap="round" stroke-linejoin="round"/>
<path d="M1370.67 813.28L1399.47 590.793" stroke="black" stroke-opacity="0.2" stroke-width="2" stroke-linecap="round" stroke-linejoin="round"/>
<path d="M1364.4 538.383L1371.91 574.155C1356.06 588.862 1344.92 590.305 1322.57 585.406L1306.71 534.921C1292.57 534.151 1262.85 534.943 1258.23 531.712C1252.46 527.674 1251.89 489.051 1254.78 465.107C1257.66 441.162 1273.21 427.129 1281.96 420.686L1371.91 426.449L1380.56 505.783L1364.4 538.383Z" fill="#FFC4A2"/>
<path d="M1369.32 540.519C1365.64 553.002 1376.31 564.819 1382.11 569.168C1379.14 571.608 1376.9 572.549 1372.15 573.691L1363.67 565.354L1369.32 574.733C1365.54 576.351 1363.14 576.932 1358.32 577.353L1355.03 566.396L1355.26 577.742C1353.47 578.383 1352.42 578.117 1351.16 578.007L1351.16 566.396L1348.53 578.237C1343.93 579.192 1341.28 579.251 1336.45 578.701L1340.34 564.147L1331.99 578.237C1329.42 578.468 1328.02 578.245 1325.58 577.353C1331.55 561.664 1343.85 528.599 1345.28 521.847C1358.58 532.59 1369.32 521.847 1374.44 515.708C1379.55 509.569 1380.23 498.169 1374.44 493.71C1370.81 490.918 1362.84 492.005 1358.32 493.71C1357.3 493.198 1354.79 490.18 1352.95 482.199C1351.11 474.219 1361.05 461.822 1366.25 456.62C1358.6 443.659 1353.29 437.543 1342.21 428.484C1312.47 429.196 1297.82 427.618 1272.89 423.624C1276.47 413.563 1286.81 391.957 1299.49 386.023C1312.18 380.088 1324.56 384.914 1329.16 388.069C1334.79 387.387 1350.34 387.506 1367.53 393.441C1389.02 400.858 1398.48 424.135 1399.51 452.016C1400.53 479.897 1373.93 524.916 1369.32 540.519Z" fill="#F59908"/>
<path d="M1322.09 580.149L1307.5 534.336H1288.1C1278.18 547.083 1269.83 550.934 1253.08 555.638C1261.38 563.785 1266.87 567.644 1278.32 573.146L1283.6 568.818L1281.83 575.335C1286.35 578.334 1291.15 580.969 1297 581.754L1299.92 572.271L1299.92 581.754C1303.04 583.376 1306.25 583.12 1309.11 582.484L1309.11 572.271L1311.44 582.484C1315.26 582.576 1318.95 582.175 1322.09 580.149Z" fill="#F59908"/>
<path d="M1302.85 430.23L1284.85 447.394L1273.97 454.092L1265.18 445.719C1264.55 450.813 1264.51 461.711 1269.36 464.558" stroke="#F3A679" stroke-width="2" stroke-linecap="round" stroke-linejoin="round"/>
<path d="M1353.38 515.262C1355.62 516.434 1362.08 517.106 1365.41 513.271C1369.56 508.476 1372.89 503.752 1369.26 501.57C1365.99 499.607 1361.78 505.002 1360.13 507.986" stroke="#F3A679" stroke-width="2" stroke-linecap="round" stroke-linejoin="round"/>
<path d="M1284.68 471.929C1295.6 474.361 1300.85 477.374 1305.91 479.777C1301.43 491.896 1286.44 519.672 1275.97 516.765C1267.6 514.439 1266.29 485.74 1266.68 471.681C1270.74 470.553 1273.76 469.498 1284.68 471.929Z" fill="#0A0815"/>
<path d="M1285.7 501.242C1288.31 501.166 1291.04 503.657 1291.44 506.366C1291.44 506.366 1290.15 509.38 1283.32 514.863C1276.49 520.345 1272.84 514.343 1272.84 514.343C1274.84 511.03 1281.01 501.377 1285.7 501.242Z" fill="#E95040"/>
<path d="M1272.02 483.112L1299.65 493.326C1301.16 490.684 1304.43 483.999 1305.98 479.811C1293.29 472.34 1279.59 470.733 1275.38 470.502L1272.02 483.112Z" fill="white"/>
<ellipse cx="1303.64" cy="453.519" rx="3.96702" ry="5.95048" transform="rotate(11.7009 1303.64 453.519)" fill="#0A0815"/>
<ellipse cx="1281.61" cy="441.068" rx="3.96702" ry="5.95048" transform="rotate(11.7009 1281.61 441.068)" fill="#0A0815"/>
<path d="M1313.24 433.574L1337.59 454.181C1337.59 447.569 1336.82 440.186 1328.89 434.786C1320.95 429.387 1316.22 431.738 1313.24 433.574Z" fill="#F59908"/>
<path d="M1280.52 426.602L1301.33 431.451C1298.64 427.308 1295.25 422.937 1289 422.18C1282.76 421.424 1281.29 424.466 1280.52 426.602Z" fill="#F59908"/>
<rect x="862.149" y="976.143" width="244.982" height="9.63864" fill="black"/>
<rect x="780.858" y="667.191" width="407.564" height="256.685" rx="15" fill="black"/>
<rect x="953.516" y="923.876" width="62.2495" height="57.0861" fill="black"/>
<rect x="794.708" y="681.362" width="379.923" height="227.713" fill="url(#paint5_linear_3_146)"/>
<path fill-rule="evenodd" clip-rule="evenodd" d="M794.708 696.774H1178.19L1174.61 680.923H794.708L794.708 696.774ZM808.754 692.271C810.644 692.271 812.176 690.739 812.176 688.849C812.176 686.959 810.644 685.427 808.754 685.427C806.864 685.427 805.332 686.959 805.332 688.849C805.332 690.739 806.864 692.271 808.754 692.271ZM825.217 688.849C825.217 690.739 823.685 692.271 821.795 692.271C819.905 692.271 818.373 690.739 818.373 688.849C818.373 686.959 819.905 685.427 821.795 685.427C823.685 685.427 825.217 686.959 825.217 688.849ZM834.836 692.271C836.726 692.271 838.258 690.739 838.258 688.849C838.258 686.959 836.726 685.427 834.836 685.427C832.946 685.427 831.414 686.959 831.414 688.849C831.414 690.739 832.946 692.271 834.836 692.271Z" fill="black" fill-opacity="0.3"/>
<path d="M871.664 805.343L914.476 908.764H1089.57L1021.75 701.921C1021.75 701.921 1077.9 632.935 1080.91 621.589C1083.92 610.242 1076.1 453.709 1076.1 453.709H1029.44C1029.44 453.709 1027.52 595.741 1024.63 604.271C1021.75 612.802 980.178 641.388 930.744 668.616C883.134 694.84 832.286 699.777 824.797 724.706C817.308 749.634 817.308 908.764 817.308 908.764H871.664V805.343Z" fill="#4700A2"/>
<path d="M871.581 805.091L849.295 756.249" stroke="black" stroke-opacity="0.2" stroke-width="2" stroke-linecap="round"/>
<path d="M893.99 511.4C885.887 523.571 902.092 566.67 902.092 566.67L905.452 570.03L910.211 566.67L980.476 517.121C986.355 510.776 995.705 495.789 986.075 486.607C976.445 477.425 902.092 499.23 893.99 511.4Z" fill="black"/>
<path d="M907.03 604.723L911.957 690.326C911.957 690.326 916.493 695.95 929.953 694.825C943.413 693.7 947.2 684.889 947.2 684.889C947.2 681.288 943.413 643.571 943.413 638.941C953.907 638.015 981.667 637.366 983.76 630.37C985.854 623.374 984.341 599.818 984.341 591.793C992.829 595.651 1001.55 584.089 1000.01 567.178C999.02 556.293 989.29 555.593 983.76 558.808L981.224 514.706C979.166 513.677 971.655 511.465 958.074 510.848C944.493 510.23 904.831 519.771 902.959 526.859C901.087 533.948 904.831 567.178 904.831 567.178C895.92 563.219 885.905 567.705 888.374 583.447C890.844 599.189 901.056 605.456 907.03 604.723Z" fill="#EF9C6A"/>
<path d="M925.612 640.408L943.263 638.836C943.612 642.389 944.277 650.769 944.573 655.068C936.573 656.943 926.787 646.958 925.612 640.408Z" fill="#D08151"/>
<ellipse cx="943.371" cy="548.903" rx="3.22362" ry="5.82833" fill="black"/>
<ellipse cx="964.65" cy="548.626" rx="3.22362" ry="5.82833" fill="black"/>
<path d="M954.161 582.347C941.551 580.946 934.752 581.88 928.407 582.347C928.407 594.384 933.446 623.498 945.763 624.338C955.617 625.01 968.345 600.357 973.477 587.946C969.584 585.648 966.771 583.748 954.161 582.347Z" fill="black"/>
<path d="M945.203 608.102C940.052 607.43 936.253 611.455 934.76 613.695C934.76 613.695 938.879 624.604 945.203 625.004C951.527 625.404 957.063 616.894 957.063 616.894C955.011 613.628 950.354 608.773 945.203 608.102Z" fill="#E95040"/>
<path d="M963.259 596.208H929.739C929.174 593.413 928.317 586.513 928.317 582.354C944.815 579.926 960.069 582.947 964.646 584.102L963.259 596.208Z" fill="white"/>
<path d="M922.382 534.814C921.488 536.091 922.009 540.669 922.382 542.798L950.965 534.814C950.432 531.886 948.346 525.84 944.258 525.073C939.148 524.115 923.5 533.217 922.382 534.814Z" fill="black"/>
<path d="M960.386 525.073C956.809 525.073 955.383 531.567 955.116 534.814L981.943 542.798C982.422 541.254 983.284 537.752 982.901 536.091C982.422 534.015 977.951 530.981 975.076 529.544C972.202 528.107 964.857 525.073 960.386 525.073Z" fill="black"/>
<path d="M955.239 541.466C955.239 541.466 957.879 563.671 958.823 564.6C959.768 565.528 973.701 567.992 973.812 569.813C973.922 571.634 955.239 578.284 955.239 578.284" stroke="#D08251" stroke-width="2" stroke-linecap="round"/>
<path d="M901.456 592.346C899.721 591.5 895.798 588.289 895.585 583.272C895.318 577 896.519 575.266 899.321 575.132C902.123 574.999 901.678 581.048 901.456 583.272" stroke="#D08151" stroke-width="2" stroke-linecap="round"/>
<path d="M988.559 583.005C990.294 582.16 994.217 578.949 994.43 573.931C994.697 567.66 993.496 565.925 990.694 565.792C987.892 565.658 988.336 571.707 988.559 573.931" stroke="#D08151" stroke-width="2" stroke-linecap="round"/>
<path d="M1039.88 434.415V453.709H1061.77L1059.94 436.113C1062.8 436.113 1070.24 434.415 1071.65 429.329C1072.2 427.378 1071.18 406.411 1070.24 396.004C1073.65 395.127 1076.92 386.6 1073.44 382.876C1069.22 378.348 1060.64 382.028 1054.11 387.114C1048.12 391.791 1044.11 397.767 1041.47 397.232C1035.4 396.004 1033.07 361.951 1021.52 368.468C1015.25 372.008 1027.15 385.61 1028.73 391.898C1029.85 396.364 1030.14 406.742 1030.88 411.965C1031.62 417.188 1036.82 428.686 1039.88 434.415Z" fill="#EF9C6A"/>
<path d="M1050.24 406.857C1027.6 406.857 1024.39 330.184 1023.75 293.173H1076.74C1076.74 330.505 1072.88 406.857 1050.24 406.857Z" fill="white"/>
<path d="M1027.03 310.192C1027.03 352.654 1034.2 401.558 1050 401.558C1065.8 401.558 1073.68 356.827 1073.34 310.192H1027.03Z" fill="url(#paint6_linear_3_146)"/>
<path d="M1045 310.192H1030.14C1030.92 329.73 1031.89 368.411 1038.02 368.628C1044.15 368.844 1045.91 329.689 1045 310.192Z" fill="url(#paint7_linear_3_146)"/>
<rect x="1047.68" y="403.993" width="5.0148" height="50.1969" fill="white"/>
<path d="M1030.69 459.729C1037.09 454.175 1041.94 453.709 1052.21 453.709C1058.02 454.147 1065.6 454.409 1071.66 459.729H1030.69Z" fill="white"/>
<path d="M1044.64 395.881C1053.45 388.351 1058.42 384.952 1068.55 380.838L1067.94 392.052V405.155C1068.23 408.577 1068.81 415.922 1068.81 417.931C1068.81 420.442 1066.3 430.597 1065.65 431.689C1065.12 432.563 1062.44 434.164 1061.17 434.856H1057.46H1053.85L1046.76 433.327L1041.62 430.597L1042.17 426.557L1044.35 424.046L1040.64 422.08V417.931L1042.17 415.42L1041.62 414.218L1038.89 409.851L1041.62 406.684L1043.81 403.518L1042.17 400.023L1044.64 395.881Z" fill="#EF9C6A"/>
<path d="M1044.99 396.826C1044.08 397.727 1040.2 400.391 1042.97 403.022C1043.83 403.833 1045.17 403.371 1047.53 403.022M1069.23 396.467C1063.73 398.238 1053.08 402.199 1047.53 403.022M1047.53 403.022C1044.37 404.972 1038.44 407.458 1039.07 411.361C1039.5 413.989 1042.76 414.905 1044.99 414.963M1066.11 410.478C1061.51 412.766 1053.7 415.187 1044.99 414.963M1044.99 414.963C1043.16 415.552 1039.47 416.982 1040.43 421.2C1040.88 423.186 1044.42 424.362 1046.63 424.671M1065.65 424.548C1060.68 424.994 1051.96 425.418 1046.63 424.671M1046.63 424.671C1044.2 425.239 1041.13 425.73 1041.57 429.576C1042 433.421 1056.43 435.315 1060.89 435.09" stroke="#DE834A" stroke-width="2" stroke-linecap="round" stroke-linejoin="round"/>
<rect width="244.982" height="9.83158" transform="matrix(1 0 0.197144 0.980375 453.904 976.143)" fill="black"/>
<rect width="407.564" height="261.824" rx="15" transform="matrix(1 0 0.197144 0.980375 310.486 667.191)" fill="black"/>
<rect width="62.2495" height="58.2288" transform="matrix(1 0 0.197144 0.980375 534.76 923.876)" fill="black"/>
<rect width="379.923" height="232.271" transform="matrix(1 0 0.197144 0.980375 327.185 681.362)" fill="url(#paint8_linear_3_146)"/>
<path fill-rule="evenodd" clip-rule="evenodd" d="M329.15 696.774H709.48L705.901 680.923H325.995L329.15 696.774ZM340.041 692.271C341.931 692.271 343.464 690.739 343.464 688.849C343.464 686.959 341.931 685.427 340.041 685.427C338.151 685.427 336.619 686.959 336.619 688.849C336.619 690.739 338.151 692.271 340.041 692.271ZM356.505 688.849C356.505 690.739 354.973 692.271 353.083 692.271C351.193 692.271 349.661 690.739 349.661 688.849C349.661 686.959 351.193 685.427 353.083 685.427C354.973 685.427 356.505 686.959 356.505 688.849ZM366.124 692.271C368.014 692.271 369.546 690.739 369.546 688.849C369.546 686.959 368.014 685.427 366.124 685.427C364.234 685.427 362.702 686.959 362.702 688.849C362.702 690.739 364.234 692.271 366.124 692.271Z" fill="black" fill-opacity="0.3"/>
<path d="M386.933 908.716L435.233 868.863C444.173 877.803 494.901 899.646 518.385 908.716H401.288H386.933Z" fill="white"/>
<path d="M896.393 306.422C894.156 313.831 885.418 329.923 882.273 335.457L903.418 345.243C904.525 343.903 907.042 340.885 908.999 340.046C911.446 338.998 941.241 346.495 946.409 344.02C951.508 341.577 949.904 336.041 947.982 333.359C949.438 332.952 952.085 331.355 952.35 329.592C952.816 326.5 951.794 324.707 949.904 323.224C951.069 322.816 954.934 321.45 955.409 318.063C956.011 313.764 953.845 311.81 952.35 310.641C956.079 310.292 963.745 308.09 964.584 302.078C965.422 296.066 961.219 292.09 956.198 293.48L916.188 298.956C911.53 299.244 907.582 298.956 907.582 298.956C911.521 283.527 910.285 265.539 904.518 268.207C900.019 270.288 899.189 297.159 896.393 306.422Z" fill="#E39566"/>
<path d="M937.595 322.054C915.153 325.046 901.837 249.47 896.309 212.868L948.832 205.865C953.766 242.871 960.037 319.062 937.595 322.054Z" fill="white"/>
<path d="M901.809 229.305C907.421 271.394 920.991 318.922 936.656 316.833C952.321 314.745 954.212 269.366 947.713 223.185L901.809 229.305Z" fill="url(#paint9_linear_3_146)"/>
<path d="M919.628 226.93L904.893 228.894C908.249 248.157 914.32 286.371 920.426 285.776C926.533 285.18 923.102 246.135 919.628 226.93Z" fill="url(#paint10_linear_3_146)"/>
<rect x="934.677" y="319.554" width="5.0148" height="50.1969" transform="rotate(-7.5944 934.677 319.554)" fill="white"/>
<path d="M925.204 377.046C930.812 370.696 935.559 369.592 945.742 368.234C951.559 367.9 959.102 367.16 965.812 371.632L925.204 377.046Z" fill="white"/>
<path d="M935.602 323.819L940.156 322.855C938.177 321.629 932.232 321.803 932.232 316.238C932.232 312.932 937.615 311.322 942.732 310.711C940.263 310.111 938.03 308.58 937.215 305.352C935.578 298.859 947.602 295.047 953.819 293.953C954.987 296.347 957.217 301.328 956.797 302.098C956.271 303.062 951.98 308.579 951.279 309.893C950.578 311.207 948.564 317.6 948.389 319.177C948.214 320.753 945.236 333.89 945.236 336.08C945.236 338.269 944.41 343.949 944.41 344.386C944.41 344.737 939.749 344.386 937.686 344.144L927.895 341.773L925.793 337.656L930.347 334.416L936.215 333.015L929.296 329.862L929.822 326.709L935.602 323.819Z" fill="#E39566"/>
<path d="M940.309 323.096C934.814 322.872 929.185 323.295 929.185 328.394C929.185 333.493 937.06 332.903 940.931 333.079C935.398 332.874 926.301 333.503 925.743 337.602C925.204 341.565 928.973 342.068 933.509 342.646M907.686 299.526C916.376 305.43 916.933 318.688 910.806 326.04" stroke="#C2784B" stroke-width="2" stroke-linecap="round" stroke-linejoin="round"/>
<path d="M434.417 867.248C433.239 858.138 440.12 850.524 445.34 844.453C445.682 848.351 447.835 856.949 450.625 861.709C454.113 867.659 488.58 881.2 499.659 884.482C510.737 887.765 548.897 898.433 567.362 899.869C587.349 901.424 598.547 898.433 604.907 896.997L597.316 908.486H519.149C510.122 907.663 494.737 903.639 470.938 893.791C441.19 881.481 435.186 873.198 434.417 867.248Z" fill="#692344"/>
<path d="M872.825 331.357C868.676 332.366 867.359 341.028 867.218 345.233L896.794 363.876C901.279 361.446 909.858 355.185 908.288 349.579C906.326 342.57 878.011 330.095 872.825 331.357Z" fill="#692344"/>
<path d="M448.794 817.454C446.428 824.865 442.684 843.425 448.227 858.313C453.769 873.201 495.059 884.798 518.516 890.704C558.597 900.796 580.626 903.297 605.046 897.292C618.57 893.967 635.908 856.559 643.941 839.798C651.975 823.038 713.168 690.469 715.386 685.812C717.603 681.156 727.502 667.566 732.676 661.376C766.395 614.815 835.886 517.98 844.089 503.125C852.293 488.269 883.352 419.333 897.856 386.722C899.519 383.858 902.568 376.08 901.459 367.876C900.073 357.622 890.65 352.633 883.721 349.584C876.793 346.536 867.691 342.14 856.728 347.845C846.959 352.929 800.989 448.102 778.076 498.194L665.5 619.194C628.114 615.332 570.773 601.029 543.408 610.089C529.439 614.714 509.303 629.817 475.008 668.646C440.713 707.474 400.29 759.415 405.432 783.948C408.323 797.741 440.121 812.921 448.794 817.454Z" fill="#9A4559"/>
<path d="M446.9 756.995C460.119 757.824 483.235 759.477 503.096 761.378M503.096 761.378C515.254 762.542 526.192 763.799 532.894 765.018C554.957 769.029 570.752 791.593 563.982 813.656C541.418 863.046 450.41 816.414 450.41 816.414M503.096 761.378C512.109 749.638 531.641 723.65 537.658 713.622C545.179 701.086 550.193 694.568 550.193 691.058C550.193 686.867 548.845 684.525 548.845 683.272" stroke="black" stroke-opacity="0.2" stroke-width="2"/>
<path d="M585.01 807.545C580.509 810.414 570.629 811.914 567.288 808.421C563.947 804.928 563.248 777.044 564.098 773.642C565.162 769.39 583.538 760.581 588.095 757.392C592.651 754.202 601.156 740.382 604.193 739.622C607.595 744.847 604.598 755.063 602.674 759.518C604.294 760.48 608.294 763.224 611.331 766.504C614.369 769.785 637.302 779.717 648.388 784.273C647.477 785.589 643.68 788.222 635.783 788.222C625.911 788.222 618.165 779.413 616.039 781.388C614.338 782.967 641.151 807.175 641.607 812.643C642.062 818.11 621.37 827.412 609.099 823.221C604.118 821.52 594.625 806.902 592.347 800.372C590.945 802.368 588.84 805.104 585.01 807.545Z" fill="#E39566"/>
<path d="M634.173 818.67C633.173 817.558 615.445 794.993 606.371 783.557" stroke="#C2784B" stroke-width="2" stroke-linecap="round" stroke-linejoin="round"/>
<path d="M622.741 822.646L598.309 791.011" stroke="#C2784B" stroke-width="2" stroke-linecap="round" stroke-linejoin="round"/>
<path d="M552.684 817.032C549.446 814.094 545.731 780.303 548.583 776.38C551.436 772.458 560.529 768.909 565.165 771.566C569.801 774.223 571.995 811.077 569.801 815.605C567.606 820.134 555.923 819.969 552.684 817.032Z" fill="#692344"/>
<path d="M697.257 631.22C698.185 641.613 691.277 652.636 675.914 656.275C660.551 659.914 611.81 623.647 611.084 610.877C610.309 597.241 625.03 589.494 636.031 588.564C647.032 587.634 695.814 615.053 697.257 631.22Z" fill="#692344"/>
<path d="M687.587 604.641L682.564 612.313L648.041 591.652L637.528 581.663L637.528 541.04L667.276 502.88C677.603 494.469 701.087 475.758 712.412 468.208C723.737 460.658 757.206 472.585 772.524 479.492C770.199 500.965 766 544.815 767.806 548.426C769.611 552.037 780.047 556.222 785.039 557.864C772.319 576.328 747.133 614.406 734.331 617.853C721.529 621.3 696.683 610.385 687.587 604.641Z" fill="#E39566"/>
<path d="M665.485 561.472L648.144 591.696C630.561 584.677 609.767 594.739 611.085 611.232C592.1 608.024 564.202 606.785 561.247 607.252C554.323 588.558 582.76 578.763 597.662 573.133C595.207 573.419 590.297 573.579 590.297 571.934C590.297 570.29 595.892 568.052 598.69 567.138C595.55 566.396 589.475 562.993 590.297 555.319C591.119 547.645 609.709 545.841 618.902 545.898C616.218 542.929 610.783 536.278 610.509 533.423C610.166 529.855 613.249 523.288 618.902 517.636C609.652 512.668 609.481 498.965 613.249 491.978C617.018 484.992 626.458 476.811 629.755 476.673C632.393 476.563 634.793 478.001 635.663 478.734C636.945 472.598 641.735 458.648 650.638 451.944C659.541 445.239 678.436 443.655 686.771 443.701C688.419 441.915 693.695 438.15 701.608 437.381C709.522 436.611 718.278 441.273 721.667 443.701C722.894 443.059 726.692 441.915 732.065 442.464C737.438 443.014 739.645 447.731 740.076 450.02C741.266 447.731 744.662 443.261 748.732 443.701C752.801 444.14 754.824 449.379 755.326 451.944C756.7 447.914 761.921 439.826 771.813 439.716C781.704 439.606 784.635 449.288 784.864 454.142C785.506 452.768 787.695 450.02 791.322 450.02C795.855 450.02 801.9 453.455 804.236 460.324C806.104 465.82 798.049 475.55 793.787 479.728C795.548 481.302 797.295 486.429 790.189 494.343C783.084 502.258 774.337 496.442 770.852 492.544C769.953 492.844 767.502 493.151 764.894 491.978C762.285 490.806 761.783 487.445 761.858 485.911C761.146 486.998 759.43 489.014 758.26 488.385C757.091 487.755 756.874 485.499 756.911 484.45C755.038 486.099 749.761 489.194 743.645 488.385C737.529 487.575 733.377 483.176 732.065 481.077C731.653 481.939 730.356 483.82 728.468 484.45C726.579 485.079 725.602 483.312 725.349 482.35C724.303 484.931 720.87 490.764 715.511 493.444C710.153 496.123 703.51 493.583 700.859 491.978C698.626 499.444 693.617 515.673 691.44 520.864C689.263 526.055 683.277 529.725 680.555 530.911C674.974 525.26 662.177 517.85 655.647 533.423C649.116 548.996 659.484 558.611 665.485 561.472Z" fill="black"/>
<path d="M747.122 562.922C735.041 557.21 727.972 555.712 721.508 553.934C717.555 565.2 713.004 594.208 724.979 599.292C734.559 603.36 755.314 584.728 764.495 574.903C761.377 571.393 759.204 568.634 747.122 562.922Z" fill="black"/>
<path d="M726.229 582.167C723.787 580.356 719.49 580.21 717.27 581.785C717.27 581.785 716.456 584.706 719.254 593.043C722.052 601.379 729.616 599.757 729.616 599.757C729.959 596.157 730.621 585.427 726.229 582.167Z" fill="#E95040"/>
<path d="M751.618 579.069L718.281 567.371C718.636 564.559 720.05 557.802 721.416 553.909C738.621 557.394 752.801 565.545 756.974 568.224L751.618 579.069Z" fill="white"/>
<path d="M760.073 518.286L725.931 520.766C727.196 517.07 732.147 509.532 741.835 508.948C751.523 508.365 758.03 514.93 760.073 518.286Z" fill="#0A0815"/>
<ellipse cx="754.348" cy="533.314" rx="3.5017" ry="6.27388" fill="#0A0815"/>
<path d="M671.049 594.452L687.546 604.685L682.598 612.31C680.767 611.352 674.086 607.127 670.102 605.009C665.757 602.699 670.068 596.828 671.049 594.452Z" fill="#C2784B"/>
<path d="M1300.74 216.63C1305.22 216.555 1310.5 220.122 1312.58 221.915L1321.68 163.63C1321.85 161.402 1322.72 156.813 1324.14 156.456C1327 155.739 1328.21 161.901 1327.72 164.475C1326.98 168.343 1326.16 172.669 1328.62 177.961C1330.93 182.957 1339.05 185.831 1344.26 196.302C1349.46 206.773 1340.05 220.105 1339.07 219.543C1338.09 218.98 1341.76 206.051 1338.84 199.315C1336.83 194.674 1328.96 186.677 1324.42 183.495C1322.27 197.72 1317.61 227.72 1316.23 233.918C1314.5 241.665 1308.36 247.667 1300.02 246.438C1290.53 245.037 1285.86 237.52 1286.24 231.397C1286.82 222.218 1293.57 216.751 1300.74 216.63Z" fill="url(#paint11_linear_3_146)"/>
<path d="M566.697 146.875C571.175 146.8 576.456 150.367 578.536 152.16L587.639 93.8744C587.81 91.6463 588.682 87.0575 590.1 86.7011C592.956 85.9836 594.173 92.1454 593.682 94.7198C592.943 98.5877 592.123 102.913 594.576 108.206C596.891 113.202 605.014 116.076 610.217 126.547C615.42 137.018 606.012 150.35 605.029 149.787C604.045 149.225 607.717 136.296 604.798 129.56C602.786 124.919 594.924 116.922 590.377 113.74C588.225 127.965 583.575 157.965 582.191 164.162C580.462 171.909 574.32 177.911 565.985 176.682C556.486 175.282 551.816 167.765 552.204 161.642C552.785 152.462 559.533 146.996 566.697 146.875Z" fill="url(#paint12_linear_3_146)"/>
<path d="M408.933 425.053C413.781 422.791 421.277 424.111 424.419 425.053L405.971 357.05C405.073 354.537 403.789 349.108 405.163 348.028C407.928 345.855 412.256 351.983 412.973 355.031C414.05 359.609 415.262 364.726 420.514 369.304C425.471 373.626 435.73 372.806 446.503 381.693C457.276 390.581 453.505 409.702 452.159 409.568C450.812 409.433 448.523 393.543 442.059 387.618C437.606 383.536 425.137 378.641 418.629 377.384C423.207 393.947 432.741 428.932 434.249 436.365C436.134 445.656 432.358 455.192 422.668 457.91C411.626 461.007 402.873 455.082 400.315 448.215C396.48 437.92 401.178 428.672 408.933 425.053Z" fill="url(#paint13_linear_3_146)"/>
<path d="M1524.9 366.632C1524.9 379.464 1514.5 389.866 1501.67 389.866C1488.83 389.866 1478.43 379.464 1478.43 366.632C1478.43 353.8 1488.83 343.397 1501.67 343.397C1514.5 343.397 1524.9 353.8 1524.9 366.632Z" fill="url(#paint14_linear_3_146)"/>
<path d="M1599.63 366.632C1599.63 379.464 1589.22 389.866 1576.39 389.866C1563.56 389.866 1553.16 379.464 1553.16 366.632C1553.16 353.8 1563.56 343.397 1576.39 343.397C1589.22 343.397 1599.63 353.8 1599.63 366.632Z" fill="url(#paint15_linear_3_146)"/>
<path d="M1538.51 293.789L1524.24 372.39L1520.09 352.817L1531.39 287.928L1613.44 287.928L1599.14 371.745L1594.6 352.817L1603.6 293.789H1538.51Z" fill="url(#paint16_linear_3_146)"/>
<path d="M743.229 303.448C744.374 309.817 740.138 315.909 733.769 317.053C727.399 318.197 721.308 313.962 720.163 307.592C719.019 301.222 723.255 295.131 729.624 293.987C735.994 292.842 742.085 297.078 743.229 303.448Z" fill="url(#paint17_linear_3_146)"/>
<path d="M780.322 296.783C781.467 303.153 777.231 309.244 770.861 310.389C764.492 311.533 758.401 307.297 757.256 300.928C756.112 294.558 760.348 288.467 766.717 287.322C773.087 286.178 779.178 290.414 780.322 296.783Z" fill="url(#paint18_linear_3_146)"/>
<path d="M743.487 266.077L743.414 306.365L739.608 297.02L739.431 263.802L780.161 256.484L780.536 299.365L776.597 290.374L775.8 260.271L743.487 266.077Z" fill="url(#paint19_linear_3_146)"/>
<path d="M1048.56 53.9846C1047.58 60.3825 1041.61 64.78 1035.21 63.8067C1028.81 62.8335 1024.42 56.8579 1025.39 50.46C1026.36 44.062 1032.34 39.6645 1038.74 40.6378C1045.13 41.6111 1049.53 47.5866 1048.56 53.9846Z" fill="url(#paint20_linear_3_146)"/>
<path d="M1085.82 59.6525C1084.84 66.0505 1078.87 70.448 1072.47 69.4747C1066.07 68.5014 1061.67 62.5258 1062.65 56.1279C1063.62 49.73 1069.6 45.3324 1075.99 46.3057C1082.39 47.279 1086.79 53.2546 1085.82 59.6525Z" fill="url(#paint21_linear_3_146)"/>
<path d="M1060.87 18.6976L1047.79 56.8056L1047.21 46.7313L1057.76 15.2356L1098.67 21.4593L1085.18 62.1647L1084.36 52.3834L1093.32 23.6353L1060.87 18.6976Z" fill="url(#paint22_linear_3_146)"/>
<path d="M663.462 550.147C663.729 550.63 664.337 550.805 664.821 550.538C665.304 550.271 665.479 549.662 665.212 549.179L663.462 550.147ZM662.636 539.592L661.702 539.235L662.636 539.592ZM670.876 532.268L671.362 531.394L670.876 532.268ZM667.816 540.353C667.513 540.815 667.643 541.435 668.105 541.737C668.568 542.039 669.187 541.91 669.49 541.448L667.816 540.353ZM665.212 549.179C664.672 548.204 663.948 546.658 663.522 544.951C663.092 543.231 662.994 541.458 663.57 539.949L661.702 539.235C660.919 541.284 661.104 543.522 661.581 545.435C662.062 547.362 662.868 549.073 663.462 550.147L665.212 549.179ZM663.57 539.949C664.372 537.852 665.724 535.802 667.137 534.465C667.845 533.795 668.522 533.349 669.105 533.138C669.674 532.932 670.082 532.971 670.39 533.142L671.362 531.394C670.411 530.866 669.372 530.915 668.426 531.257C667.494 531.593 666.587 532.232 665.762 533.012C664.11 534.575 662.601 536.886 661.702 539.235L663.57 539.949ZM670.39 533.142C671.024 533.494 671.196 533.868 671.232 534.226C671.277 534.67 671.125 535.269 670.749 536.024C670.382 536.761 669.86 537.53 669.313 538.283C668.791 539.002 668.203 539.76 667.816 540.353L669.49 541.448C669.843 540.907 670.345 540.265 670.931 539.459C671.491 538.688 672.095 537.808 672.539 536.916C672.975 536.041 673.323 535.03 673.222 534.026C673.112 532.936 672.494 532.023 671.362 531.394L670.39 533.142Z" fill="#C2784B"/>
<defs>
<linearGradient id="paint0_linear_3_146" x1="1012.79" y1="203.134" x2="1012.79" y2="1058.2" gradientUnits="userSpaceOnUse">
<stop offset="0.192708" stop-color="#17141E" stop-opacity="0"/>
<stop offset="1" stop-color="#623E7E"/>
</linearGradient>
<linearGradient id="paint1_linear_3_146" x1="175.567" y1="997.796" x2="1870.66" y2="997.796" gradientUnits="userSpaceOnUse">
<stop stop-color="#D66ADF"/>
<stop offset="1" stop-color="#631AFF"/>
</linearGradient>
<linearGradient id="paint2_linear_3_146" x1="189.961" y1="0" x2="189.961" y2="232.271" gradientUnits="userSpaceOnUse">
<stop stop-color="#D66ADF"/>
<stop offset="1" stop-color="#631AFF"/>
</linearGradient>
<linearGradient id="paint3_linear_3_146" x1="1131.34" y1="318.453" x2="1113.83" y2="408.125" gradientUnits="userSpaceOnUse">
<stop stop-color="#D66ADF"/>
<stop offset="1" stop-color="#631AFF"/>
</linearGradient>
<linearGradient id="paint4_linear_3_146" x1="1110.1" y1="322.643" x2="1125.67" y2="327.192" gradientUnits="userSpaceOnUse">
<stop stop-color="white" stop-opacity="0.5"/>
<stop offset="1" stop-color="white" stop-opacity="0"/>
</linearGradient>
<linearGradient id="paint5_linear_3_146" x1="984.669" y1="681.362" x2="984.669" y2="909.074" gradientUnits="userSpaceOnUse">
<stop stop-color="#D66ADF"/>
<stop offset="1" stop-color="#631AFF"/>
</linearGradient>
<linearGradient id="paint6_linear_3_146" x1="1050.19" y1="310.192" x2="1050.19" y2="401.558" gradientUnits="userSpaceOnUse">
<stop stop-color="#D66ADF"/>
<stop offset="1" stop-color="#631AFF"/>
</linearGradient>
<linearGradient id="paint7_linear_3_146" x1="1030.14" y1="318.377" x2="1046.3" y2="319.857" gradientUnits="userSpaceOnUse">
<stop stop-color="white" stop-opacity="0.5"/>
<stop offset="1" stop-color="white" stop-opacity="0"/>
</linearGradient>
<linearGradient id="paint8_linear_3_146" x1="189.961" y1="0" x2="189.961" y2="232.271" gradientUnits="userSpaceOnUse">
<stop stop-color="#D66ADF"/>
<stop offset="1" stop-color="#631AFF"/>
</linearGradient>
<linearGradient id="paint9_linear_3_146" x1="924.766" y1="226.244" x2="936.841" y2="316.809" gradientUnits="userSpaceOnUse">
<stop stop-color="#D66ADF"/>
<stop offset="1" stop-color="#631AFF"/>
</linearGradient>
<linearGradient id="paint10_linear_3_146" x1="905.974" y1="237.007" x2="922.188" y2="236.338" gradientUnits="userSpaceOnUse">
<stop stop-color="white" stop-opacity="0.5"/>
<stop offset="1" stop-color="white" stop-opacity="0"/>
</linearGradient>
<linearGradient id="paint11_linear_3_146" x1="1340.55" y1="163.365" x2="1302.61" y2="248.366" gradientUnits="userSpaceOnUse">
<stop stop-color="#D66ADF"/>
<stop offset="1" stop-color="#631AFF"/>
</linearGradient>
<linearGradient id="paint12_linear_3_146" x1="606.514" y1="93.6094" x2="568.571" y2="178.611" gradientUnits="userSpaceOnUse">
<stop stop-color="#D66ADF"/>
<stop offset="1" stop-color="#631AFF"/>
</linearGradient>
<linearGradient id="paint13_linear_3_146" x1="426.428" y1="347.572" x2="426.428" y2="458.754" gradientUnits="userSpaceOnUse">
<stop stop-color="#D66ADF"/>
<stop offset="1" stop-color="#631AFF"/>
</linearGradient>
<linearGradient id="paint14_linear_3_146" x1="1545.94" y1="287.928" x2="1545.94" y2="389.866" gradientUnits="userSpaceOnUse">
<stop stop-color="#D66ADF"/>
<stop offset="1" stop-color="#631AFF"/>
</linearGradient>
<linearGradient id="paint15_linear_3_146" x1="1545.94" y1="287.928" x2="1545.94" y2="389.866" gradientUnits="userSpaceOnUse">
<stop stop-color="#D66ADF"/>
<stop offset="1" stop-color="#631AFF"/>
</linearGradient>
<linearGradient id="paint16_linear_3_146" x1="1545.94" y1="287.928" x2="1545.94" y2="389.866" gradientUnits="userSpaceOnUse">
<stop stop-color="#D66ADF"/>
<stop offset="1" stop-color="#631AFF"/>
</linearGradient>
<linearGradient id="paint17_linear_3_146" x1="750.256" y1="256.484" x2="750.256" y2="317.24" gradientUnits="userSpaceOnUse">
<stop stop-color="#D66ADF"/>
<stop offset="1" stop-color="#631AFF"/>
</linearGradient>
<linearGradient id="paint18_linear_3_146" x1="750.256" y1="256.484" x2="750.256" y2="317.24" gradientUnits="userSpaceOnUse">
<stop stop-color="#D66ADF"/>
<stop offset="1" stop-color="#631AFF"/>
</linearGradient>
<linearGradient id="paint19_linear_3_146" x1="750.256" y1="256.484" x2="750.256" y2="317.24" gradientUnits="userSpaceOnUse">
<stop stop-color="#D66ADF"/>
<stop offset="1" stop-color="#631AFF"/>
</linearGradient>
<linearGradient id="paint20_linear_3_146" x1="1070.37" y1="11.8045" x2="1050.76" y2="69.3065" gradientUnits="userSpaceOnUse">
<stop stop-color="#D66ADF"/>
<stop offset="1" stop-color="#631AFF"/>
</linearGradient>
<linearGradient id="paint21_linear_3_146" x1="1070.37" y1="11.8045" x2="1050.76" y2="69.3065" gradientUnits="userSpaceOnUse">
<stop stop-color="#D66ADF"/>
<stop offset="1" stop-color="#631AFF"/>
</linearGradient>
<linearGradient id="paint22_linear_3_146" x1="1070.37" y1="11.8045" x2="1050.76" y2="69.3065" gradientUnits="userSpaceOnUse">
<stop stop-color="#D66ADF"/>
<stop offset="1" stop-color="#631AFF"/>
</linearGradient>
</defs>
</svg>
