<svg xmlns="http://www.w3.org/2000/svg" width="11.9428in" height="13.4982in" viewBox="0 0 859.8807 971.8688"><defs><style>.a{fill:#CACACA;}</style></defs><title>Listening Lobby Logo</title><path class="a" d="M711.06,1005.0437l-145.5373,73.4829c-126.2939,63.7668-275.4627-28.0211-275.4627-169.5V424.1938c0-141.4792,149.1688-233.2671,275.4627-169.5L1045.6418,497.11c139.0647,70.2149,139.0647,268.7858,0,339.0007l-169.7334,85.7V587.8124a14.1615,14.1615,0,0,0-7.8326-12.6685l-386.16-192.91a14.1612,14.1612,0,0,0-20.49,12.6684v404.56c0,72.25,38.4037,104.0569,88.5742,117.5,57.6115,15.437,104.7087,2.0743,115-36.3333s-21.3808-79.4581-78.9922-94.895a156.522,156.522,0,0,0-38.1759-5.4067V561.8863A14.1612,14.1612,0,0,1,568.3262,549.22L782.0038,656.0589a14.1612,14.1612,0,0,1,7.8281,12.6662V977.9156a14.4305,14.4305,0,0,0,.357,3.1844l.1778,80.9159a154.2252,154.2252,0,0,1,45.311,5.33c57.6115,15.4367,95.972,59.0864,85.6807,97.4941s-64.08,49.8924-121.6917,34.4555c-51.7746-13.873-88.5946-52-88.5946-110.3334Z" transform="translate(-290.0597 -234.0656)"/></svg>