<svg xmlns="http://www.w3.org/2000/svg" xmlns:xlink="http://www.w3.org/1999/xlink" width="13.7389in" height="4.2845in" viewBox="0 0 989.2011 308.4872"><defs><style>.a{fill:url(#a);}.b{fill:#fff;}</style><linearGradient id="a" x1="436.5428" y1="862.7481" x2="267.3851" y2="569.7583" gradientUnits="userSpaceOnUse"><stop offset="0" stop-color="#4323ff"/><stop offset="1" stop-color="#ed1e79"/></linearGradient></defs><title>Listening Lobby Logo With Text</title><path class="a" d="M363.692,810.4776l-46.1959,23.3247C277.4083,854.0429,230.06,824.9079,230.06,780V626.1062c0-44.9078,47.3486-74.0428,87.4364-53.8022l152.3978,76.9469c44.1415,22.2874,44.1415,85.3171,0,107.6045l-53.8762,27.2025V678.0415a4.495,4.495,0,0,0-2.4862-4.0212L290.9579,612.7875a4.495,4.495,0,0,0-6.5038,4.0211V745.2227c0,22.9333,12.19,33.0293,28.1149,37.2964,18.2868,4.9,33.2363.6584,36.5029-11.5328s-6.7866-25.2213-25.0734-30.1212a49.6852,49.6852,0,0,0-12.1177-1.7162V669.8121a4.4951,4.4951,0,0,1,6.5053-4.02l67.8247,33.9124a4.495,4.495,0,0,1,2.4848,4.0205v98.1422a4.5746,4.5746,0,0,0,.1134,1.0108l.0564,25.684a48.953,48.953,0,0,1,14.3824,1.6919c18.2869,4.9,30.4632,18.755,27.1965,30.9463s-20.34,15.8366-38.627,10.9367c-16.434-4.4035-28.1213-16.5057-28.1213-35.0216Z" transform="translate(-230.0597 -565.7564)"/><path class="b" d="M588.12,695.9185h32.832v18.8637h-57.456V612.9741H588.12Z" transform="translate(-230.0597 -565.7564)"/><path class="b" d="M634.0557,602.5342q4.03-3.6717,10.6557-3.6719,6.6219,0,10.6563,3.6719a12.0245,12.0245,0,0,1,4.0317,9.2881,11.8639,11.8639,0,0,1-4.0317,9.144q-4.0335,3.6717-10.6563,3.6719-6.6248,0-10.6557-3.6719a11.8561,11.8561,0,0,1-4.0323-9.144A12.0166,12.0166,0,0,1,634.0557,602.5342Zm22.896,31.896v80.352H632.3276V634.43Z" transform="translate(-230.0597 -565.7564)"/><path class="b" d="M727.582,641.0542a33.174,33.174,0,0,1,11.4473,20.16h-23.04a12.7734,12.7734,0,0,0-4.5362-7.7041,13.78,13.78,0,0,0-8.8559-2.8082q-4.1778,0-6.336,1.8a6.2842,6.2842,0,0,0-2.16,5.1119q0,3.7463,3.96,5.6162a62.9762,62.9762,0,0,0,12.4556,3.7436,123.9627,123.9627,0,0,1,15.12,4.3921,24.97,24.97,0,0,1,10.2246,7.272q4.32,5.042,4.32,13.5361a20.7612,20.7612,0,0,1-3.7441,12.24,24.6656,24.6656,0,0,1-10.8008,8.352,42.2035,42.2035,0,0,1-16.7036,3.0239q-16.2737,0-26.064-7.2-9.794-7.1989-11.9516-20.5923h23.76a10.6837,10.6837,0,0,0,4.3921,7.92,16.5272,16.5272,0,0,0,9.8638,2.7358q4.1756,0,6.3364-1.9439a6.5485,6.5485,0,0,0,2.16-5.1123,6.149,6.149,0,0,0-3.96-5.976,73.088,73.088,0,0,0-12.8877-3.8159,102.7483,102.7483,0,0,1-14.6879-4.0318,24.2259,24.2259,0,0,1-9.9361-6.9844q-4.1784-4.8222-4.1762-13.1757a21.5007,21.5007,0,0,1,8.208-17.4961q8.2082-6.6958,23.184-6.6958Q718.4349,633.4224,727.582,641.0542Z" transform="translate(-230.0597 -565.7564)"/><path class="b" d="M799.3643,693.6143v21.1679H788.2764q-14.1138,0-21.96-6.9839-7.8516-6.9828-7.8476-23.1123v-29.52H747.668V634.43h10.8008V614.7021h24.623V634.43h16.1289V655.166H783.0918v29.9522q0,4.7518,1.9443,6.624t6.5518,1.8721Z" transform="translate(-230.0597 -565.7564)"/><path class="b" d="M888.7861,679.07H833.0586q.4322,9.0719,4.6074,13.0318a14.8536,14.8536,0,0,0,10.6563,3.96,14.5624,14.5624,0,0,0,9.0722-2.7358,12.7849,12.7849,0,0,0,4.752-7.0562H888.21a34.0815,34.0815,0,0,1-6.9112,15.1924,36.8327,36.8327,0,0,1-13.5361,10.5117,46.23,46.23,0,0,1-39.24-1.1518,35.4784,35.4784,0,0,1-14.3282-14.3282q-5.184-9.3588-5.1845-21.8877,0-12.67,5.1132-21.96A35.0189,35.0189,0,0,1,828.45,638.39a47.2773,47.2773,0,0,1,42.0478-.0717,34.5816,34.5816,0,0,1,14.04,13.7519,40.9325,40.9325,0,0,1,4.9687,20.376A33.9959,33.9959,0,0,1,888.7861,679.07Zm-28.4394-22.248a15.6451,15.6451,0,0,0-10.8721-3.96,16.1277,16.1277,0,0,0-11.2324,4.0317q-4.4649,4.0335-5.04,11.8081h31.3926Q864.7354,660.7847,860.3467,656.8223Z" transform="translate(-230.0597 -565.7564)"/><path class="b" d="M975.2559,642.7822q8.1342,9.2169,8.1367,25.3443v46.6557h-24.624V671.0063q0-8.0631-4.2481-12.6T943.2158,653.87q-7.4883,0-11.88,4.752-4.3944,4.7518-4.3916,13.5361v42.624H902.32V634.43h24.624v14.688a26.5122,26.5122,0,0,1,10.2959-11.376,30.2023,30.2023,0,0,1,16.0557-4.1758Q967.1211,633.5664,975.2559,642.7822Z" transform="translate(-230.0597 -565.7564)"/><path class="b" d="M1001.3916,602.5342q4.03-3.6717,10.6563-3.6719,6.6225,0,10.6562,3.6719a12.0249,12.0249,0,0,1,4.0322,9.2881,11.8644,11.8644,0,0,1-4.0322,9.144q-4.0328,3.6717-10.6562,3.6719-6.6255,0-10.6563-3.6719a11.8568,11.8568,0,0,1-4.0312-9.144A12.0173,12.0173,0,0,1,1001.3916,602.5342Zm22.8965,31.896v80.352h-24.624V634.43Z" transform="translate(-230.0597 -565.7564)"/><path class="b" d="M1114.2139,642.7822q8.1342,9.2169,8.1367,25.3443v46.6557h-24.624V671.0063q0-8.0631-4.2481-12.6t-11.3047-4.5362q-7.4883,0-11.88,4.752-4.3944,4.7518-4.3916,13.5361v42.624h-24.624V634.43h24.624v14.688a26.5128,26.5128,0,0,1,10.2959-11.376,30.2023,30.2023,0,0,1,16.0557-4.1758Q1106.0791,633.5664,1114.2139,642.7822Z" transform="translate(-230.0597 -565.7564)"/><path class="b" d="M1184.9893,637.5981a25.1369,25.1369,0,0,1,9.792,11.376V634.43h24.4794v79.92a46.1683,46.1683,0,0,1-4.3193,20.2319,33.1584,33.1584,0,0,1-13.248,14.3282q-8.9312,5.3261-22.1768,5.3281-18.1435,0-29.0156-8.5684t-13.0322-23.2558h24.3359a12.2041,12.2041,0,0,0,5.2558,7.6318q4.1046,2.7335,10.7286,2.7363,7.63,0,12.3115-4.3926,4.6787-4.393,4.6807-14.0395V700.2383a25.1139,25.1139,0,0,1-9.792,11.376,29.0828,29.0828,0,0,1-15.84,4.1757,32.5424,32.5424,0,0,1-17.7842-4.9677,33.9655,33.9655,0,0,1-12.3838-14.3282q-4.5366-9.3588-4.5361-21.8877,0-12.67,4.5361-21.96a34.0573,34.0573,0,0,1,12.3838-14.2559,32.5424,32.5424,0,0,1,17.7842-4.9677A29.1034,29.1034,0,0,1,1184.9893,637.5981Zm-20.6641,22.608q-4.8267,5.184-4.8242,14.4,0,9.2169,4.8242,14.4,4.8222,5.1842,12.7441,5.1841a16.6468,16.6468,0,0,0,12.7442-5.3281q4.9672-5.3262,4.9678-14.2559,0-9.0725-4.9678-14.3281a16.7625,16.7625,0,0,0-12.7442-5.2558Q1169.1475,655.0225,1164.3252,660.2061Z" transform="translate(-230.0597 -565.7564)"/><path class="b" d="M588.12,811.918h32.832v18.8642h-57.456V728.9736H588.12Z" transform="translate(-230.0597 -565.7564)"/><path class="b" d="M691.2954,754.39a36.4386,36.4386,0,0,1,14.832,14.3282q5.4,9.3633,5.4,21.8886,0,12.5274-5.4,21.8877a36.4259,36.4259,0,0,1-14.832,14.3282,48.6633,48.6633,0,0,1-42.84,0,36.3,36.3,0,0,1-14.9038-14.3282q-5.4-9.3588-5.4-21.8877t5.4-21.8886A36.3129,36.3129,0,0,1,648.4556,754.39a48.6633,48.6633,0,0,1,42.84,0Zm-33.2637,21.4561q-4.8265,5.1138-4.8242,14.7607,0,9.649,4.8242,14.6875a15.7892,15.7892,0,0,0,11.88,5.04,15.566,15.566,0,0,0,11.8081-5.04q4.752-5.0389,4.752-14.6875,0-9.6459-4.752-14.7607a15.4731,15.4731,0,0,0-11.8081-5.1113A15.6937,15.6937,0,0,0,658.0317,775.8457Z" transform="translate(-230.0597 -565.7564)"/><path class="b" d="M792.2383,754.39a34.0853,34.0853,0,0,1,12.3847,14.2559q4.5352,9.2886,4.5352,21.9609,0,12.5274-4.5352,21.8877a33.9926,33.9926,0,0,1-12.3847,14.3282,32.5477,32.5477,0,0,1-17.7832,4.9677,29.073,29.073,0,0,1-15.84-4.1757,24.23,24.23,0,0,1-9.6484-11.376v14.5439h-24.624v-106.56h24.624v40.7519a24.2534,24.2534,0,0,1,9.6484-11.3759,29.0894,29.0894,0,0,1,15.84-4.1758A32.5477,32.5477,0,0,1,792.2383,754.39ZM753.791,776.2783q-4.9687,5.2574-4.9687,14.3281,0,8.93,4.9687,14.2559a16.6438,16.6438,0,0,0,12.7442,5.3281q7.9159,0,12.7441-5.1845,4.8222-5.1841,4.8232-14.3995,0-9.2138-4.8232-14.4-4.8282-5.1841-12.7441-5.1836A16.7577,16.7577,0,0,0,753.791,776.2783Z" transform="translate(-230.0597 -565.7564)"/><path class="b" d="M889.8691,754.39a34.0848,34.0848,0,0,1,12.3848,14.2559q4.5351,9.2886,4.5352,21.9609,0,12.5274-4.5352,21.8877a33.9921,33.9921,0,0,1-12.3848,14.3282,32.5475,32.5475,0,0,1-17.7832,4.9677,29.0764,29.0764,0,0,1-15.8408-4.1757,24.239,24.239,0,0,1-9.6474-11.376v14.5439H821.9736v-106.56h24.6241v40.7519a24.2621,24.2621,0,0,1,9.6474-11.3759,29.0928,29.0928,0,0,1,15.8408-4.1758A32.5475,32.5475,0,0,1,889.8691,754.39Zm-38.4472,21.8887q-4.9687,5.2574-4.9688,14.3281,0,8.93,4.9688,14.2559A16.6436,16.6436,0,0,0,864.166,810.19q7.9174,0,12.7432-5.1845,4.8237-5.1841,4.8242-14.3995,0-9.2138-4.8242-14.4-4.8252-5.1841-12.7432-5.1836A16.7575,16.7575,0,0,0,851.4219,776.2783Z" transform="translate(-230.0597 -565.7564)"/><path class="b" d="M938.1807,750.43l19.2959,49.248,18-49.248h27.2158L952.58,869.0859H925.5088l18.8633-41.3281L910.6768,750.43Z" transform="translate(-230.0597 -565.7564)"/></svg>