<svg xmlns="http://www.w3.org/2000/svg" xmlns:xlink="http://www.w3.org/1999/xlink" width="12.8419in" height="4.2845in" viewBox="0 0 924.62 308.4872"><defs><style>.a{fill:url(#a);}.b{fill:#fff;}</style><linearGradient id="a" x1="366.5298" y1="874.2436" x2="366.5298" y2="565.7564" gradientUnits="userSpaceOnUse"><stop offset="0" stop-color="#631aff"/><stop offset="1" stop-color="#d66adf"/></linearGradient></defs><title>logo-with-text</title><path class="a" d="M363.692,810.4776l-46.1959,23.3247C277.4083,854.0429,230.06,824.9079,230.06,780V626.1062c0-44.9078,47.3486-74.0428,87.4364-53.8022l152.3978,76.9469c44.1415,22.2874,44.1415,85.3171,0,107.6045l-53.8762,27.2025V678.0415a4.495,4.495,0,0,0-2.4862-4.0212L290.9579,612.7875a4.495,4.495,0,0,0-6.5038,4.0211V745.2227c0,22.9333,12.19,33.0293,28.1149,37.2964,18.2868,4.9,33.2363.6584,36.5029-11.5328s-6.7866-25.2213-25.0734-30.1212a49.6852,49.6852,0,0,0-12.1177-1.7162V669.8121a4.4951,4.4951,0,0,1,6.5053-4.02l67.8247,33.9124a4.495,4.495,0,0,1,2.4848,4.0205v98.1422a4.5746,4.5746,0,0,0,.1134,1.0108l.0564,25.684a48.953,48.953,0,0,1,14.3824,1.6919c18.2869,4.9,30.4632,18.755,27.1965,30.9463s-20.34,15.8366-38.627,10.9367c-16.434-4.4035-28.1213-16.5057-28.1213-35.0216Z" transform="translate(-230.0597 -565.7564)"/><path class="b" d="M584.9,687.3926h29.64v17.03H562.67v-91.91H584.9Z" transform="translate(-230.0597 -565.7564)"/><path class="b" d="M626.37,603.0874a15.6167,15.6167,0,0,1,19.24,0,10.8549,10.8549,0,0,1,3.64,8.3848,10.71,10.71,0,0,1-3.64,8.2553,15.6164,15.6164,0,0,1-19.24,0,10.7043,10.7043,0,0,1-3.64-8.2553A10.849,10.849,0,0,1,626.37,603.0874Zm20.67,28.7949v72.54H624.81v-72.54Z" transform="translate(-230.0597 -565.7564)"/><path class="b" d="M710.8032,637.8623a29.9521,29.9521,0,0,1,10.3355,18.2H700.3379a11.5334,11.5334,0,0,0-4.0947-6.9551,12.4431,12.4431,0,0,0-7.9952-2.5351,8.7432,8.7432,0,0,0-5.72,1.625,5.6749,5.6749,0,0,0-1.95,4.6152q0,3.3816,3.5747,5.07a56.7971,56.7971,0,0,0,11.2451,3.38,111.9643,111.9643,0,0,1,13.65,3.9653,22.5392,22.5392,0,0,1,9.23,6.565q3.9,4.5519,3.9,12.22a18.7418,18.7418,0,0,1-3.38,11.05,22.2662,22.2662,0,0,1-9.75,7.54,38.1069,38.1069,0,0,1-15.08,2.73q-14.6917,0-23.53-6.5-8.8417-6.4995-10.79-18.59h21.45a9.645,9.645,0,0,0,3.9649,7.15,14.9226,14.9226,0,0,0,8.9048,2.47,8.2922,8.2922,0,0,0,5.72-1.7549,5.9118,5.9118,0,0,0,1.95-4.6152,5.5511,5.5511,0,0,0-3.5752-5.395,65.9883,65.9883,0,0,0-11.6348-3.4449,92.7183,92.7183,0,0,1-13.26-3.64,21.8675,21.8675,0,0,1-8.97-6.3047q-3.7727-4.3542-3.77-11.895a19.41,19.41,0,0,1,7.41-15.7949q7.41-6.0454,20.93-6.0454Q702.5456,630.9722,710.8032,637.8623Z" transform="translate(-230.0597 -565.7564)"/><path class="b" d="M775.6074,685.3125v19.11h-10.01q-12.7442,0-19.8262-6.3052-7.0869-6.3039-7.084-20.8648v-26.65h-9.75v-18.72h9.75v-17.81h22.23v17.81h14.56v18.72h-14.56v27.04q0,4.29,1.7549,5.98t5.915,1.69Z" transform="translate(-230.0597 -565.7564)"/><path class="b" d="M856.335,672.1821h-50.31q.39,8.1907,4.16,11.7652a13.4075,13.4075,0,0,0,9.6192,3.5752,13.1458,13.1458,0,0,0,8.19-2.47,11.5419,11.5419,0,0,0,4.29-6.37h23.53a30.7755,30.7755,0,0,1-6.24,13.7154,33.2484,33.2484,0,0,1-12.22,9.49,41.7323,41.7323,0,0,1-35.4258-1.04,32.0345,32.0345,0,0,1-12.9346-12.9346,40.1328,40.1328,0,0,1-4.6806-19.76q0-11.4381,4.6152-19.8252a31.6242,31.6242,0,0,1,12.9355-12.87,42.6771,42.6771,0,0,1,37.96-.0649A31.2308,31.2308,0,0,1,852.5,647.8071a36.9563,36.9563,0,0,1,4.4854,18.395A30.7069,30.7069,0,0,1,856.335,672.1821ZM830.66,652.0972a14.1228,14.1228,0,0,0-9.8145-3.5747,14.5579,14.5579,0,0,0-10.1406,3.64q-4.0312,3.6408-4.55,10.66h28.34Q834.6226,655.6745,830.66,652.0972Z" transform="translate(-230.0597 -565.7564)"/><path class="b" d="M934.3984,639.4224q7.3432,8.3209,7.3457,22.88v42.12h-22.23v-39.52q0-7.2787-3.835-11.375a13.3231,13.3231,0,0,0-10.2051-4.0952q-6.76,0-10.7246,4.29-3.9668,4.29-3.9648,12.22v38.48H868.5537v-72.54h22.2305v13.26a23.9342,23.9342,0,0,1,9.2949-10.27,27.2645,27.2645,0,0,1,14.4951-3.77Q927.0533,631.1025,934.3984,639.4224Z" transform="translate(-230.0597 -565.7564)"/><path class="b" d="M957.9932,603.0874a15.6151,15.6151,0,0,1,19.2392,0,10.8541,10.8541,0,0,1,3.6406,8.3848,10.7094,10.7094,0,0,1-3.6406,8.2553,15.6148,15.6148,0,0,1-19.2392,0,10.7028,10.7028,0,0,1-3.6407-8.2553A10.8475,10.8475,0,0,1,957.9932,603.0874Zm20.67,28.7949v72.54H956.4326v-72.54Z" transform="translate(-230.0597 -565.7564)"/><path class="b" d="M1059.8457,639.4224q7.3432,8.3209,7.3457,22.88v42.12h-22.23v-39.52q0-7.2787-3.8349-11.375a13.3233,13.3233,0,0,0-10.2051-4.0952q-6.76,0-10.7246,4.29-3.9667,4.29-3.9649,12.22v38.48h-22.23v-72.54h22.23v13.26a23.9344,23.9344,0,0,1,9.295-10.27,27.2642,27.2642,0,0,1,14.4951-3.77Q1052.5,631.1025,1059.8457,639.4224Z" transform="translate(-230.0597 -565.7564)"/><path class="b" d="M1123.74,634.7422a22.6855,22.6855,0,0,1,8.84,10.27v-13.13h22.1v72.15a41.68,41.68,0,0,1-3.8994,18.2647,29.9342,29.9342,0,0,1-11.96,12.9355q-8.0625,4.8077-20.0205,4.81-16.38,0-26.1953-7.7354T1080.84,711.3125h21.97a11.0181,11.0181,0,0,0,4.7451,6.89,17.1772,17.1772,0,0,0,9.6855,2.47q6.8892,0,11.1143-3.9649,4.2231-3.9675,4.2256-12.6753v-12.74a22.6655,22.6655,0,0,1-8.84,10.27,26.2547,26.2547,0,0,1-14.3,3.77,29.377,29.377,0,0,1-16.0556-4.4853,30.6632,30.6632,0,0,1-11.18-12.9346,44.8219,44.8219,0,0,1-4.0947-19.76q0-11.4381,4.0947-19.8252a30.7441,30.7441,0,0,1,11.18-12.87,29.377,29.377,0,0,1,16.0556-4.4853A26.271,26.271,0,0,1,1123.74,634.7422Zm-18.6552,20.41q-4.3565,4.68-4.3555,13t4.3555,13a16.32,16.32,0,0,0,23.01-.13q4.4854-4.8084,4.4854-12.87,0-8.19-4.4854-12.935a15.1327,15.1327,0,0,0-11.5049-4.7451A14.9709,14.9709,0,0,0,1105.085,655.1523Z" transform="translate(-230.0597 -565.7564)"/><path class="b" d="M584.9,803.3926h29.64v17.0293H562.67v-91.91H584.9Z" transform="translate(-230.0597 -565.7564)"/><path class="b" d="M678.0444,751.457a32.8959,32.8959,0,0,1,13.39,12.9356,42.4834,42.4834,0,0,1,0,39.5195,32.8745,32.8745,0,0,1-13.39,12.9346,43.9271,43.9271,0,0,1-38.6748,0,32.7621,32.7621,0,0,1-13.455-12.9346,42.4834,42.4834,0,0,1,0-39.5195A32.7833,32.7833,0,0,1,639.37,751.457a43.9271,43.9271,0,0,1,38.6748,0Zm-30.03,19.37q-4.357,4.6158-4.3549,13.3252,0,8.71,4.3549,13.26a14.2525,14.2525,0,0,0,10.7251,4.55,14.05,14.05,0,0,0,10.66-4.55q4.2906-4.5483,4.29-13.26,0-8.7084-4.29-13.3252a13.9688,13.9688,0,0,0-10.66-4.6152A14.1693,14.1693,0,0,0,648.0146,770.8271Z" transform="translate(-230.0597 -565.7564)"/><path class="b" d="M769.1738,751.457a30.7686,30.7686,0,0,1,11.18,12.87q4.0957,8.3849,4.0957,19.8252a44.82,44.82,0,0,1-4.0957,19.76,30.677,30.677,0,0,1-11.18,12.9346,29.381,29.381,0,0,1-16.0547,4.4853,26.2462,26.2462,0,0,1-14.3007-3.7695,21.8808,21.8808,0,0,1-8.71-10.27v13.13h-22.23v-96.2h22.23v36.79a21.9017,21.9017,0,0,1,8.71-10.2695,26.263,26.263,0,0,1,14.3007-3.77A29.381,29.381,0,0,1,769.1738,751.457Zm-34.7109,19.76q-4.4839,4.7475-4.4844,12.9355,0,8.0611,4.4844,12.87a16.3227,16.3227,0,0,0,23.0107.13q4.3536-4.68,4.3545-13t-4.3545-13a14.9784,14.9784,0,0,0-11.5048-4.6806A15.1366,15.1366,0,0,0,734.4629,771.2168Z" transform="translate(-230.0597 -565.7564)"/><path class="b" d="M857.3125,751.457a30.7617,30.7617,0,0,1,11.18,12.87q4.0958,8.3849,4.0957,19.8252a44.82,44.82,0,0,1-4.0957,19.76,30.67,30.67,0,0,1-11.18,12.9346,29.381,29.381,0,0,1-16.0547,4.4853,26.2433,26.2433,0,0,1-14.3-3.7695,21.8814,21.8814,0,0,1-8.71-10.27v13.13h-22.23v-96.2h22.23v36.79a21.9023,21.9023,0,0,1,8.71-10.2695,26.26,26.26,0,0,1,14.3-3.77A29.381,29.381,0,0,1,857.3125,751.457Zm-34.71,19.76q-4.4838,4.7475-4.4853,12.9355,0,8.0611,4.4853,12.87a16.3217,16.3217,0,0,0,23.01.13q4.3549-4.68,4.3555-13t-4.3555-13a14.9773,14.9773,0,0,0-11.5049-4.6806A15.1346,15.1346,0,0,0,822.6025,771.2168Z" transform="translate(-230.0597 -565.7564)"/><path class="b" d="M900.9277,747.8818l17.42,44.46,16.25-44.46H959.167L913.9277,855.0029h-24.44l17.03-37.31-30.42-69.8106Z" transform="translate(-230.0597 -565.7564)"/></svg>