<svg xmlns="http://www.w3.org/2000/svg" width="743.6411" height="743.6411" viewBox="0 0 743.6411 743.6411"><defs><style>.a{fill:#1ed660;}.b{fill:#fefefe;}</style></defs><title>spotify-logo</title><circle class="a" cx="371.8206" cy="371.8206" r="371.8206"/><path class="b" d="M647.6456,300.6689c-.3475,21.5253-16.8343,36.9783-37.0594,35.9275a32.9658,32.9658,0,0,1-15.2321-4.5987A368.712,368.712,0,0,0,539.7283,305.3a517.34,517.34,0,0,0-78.7476-22.8906q-20.9232-4.4243-42.1032-7.3668c-12.8874-1.8139-25.8221-3.23-38.7956-4.3287a711.97,711.97,0,0,0-75.0793-2.4028q-28.2249.5929-56.3165,3.555a502.2759,502.2759,0,0,0-76.8943,13.8985c-4.6839,1.2557-9.2587,2.9179-14.0353,3.8237-18.3974,3.4887-36.8151-9.0438-40.2857-27.3983-3.4417-18.2017,6.8492-35.0724,24.6708-40.4489a499.645,499.645,0,0,1,66.7851-14.945,691.3144,691.3144,0,0,1,86.2762-7.91q32.2554-.9942,64.4825.5873,26.509,1.324,52.8712,4.4676,27.63,3.3127,54.9384,8.7156a629.7749,629.7749,0,0,1,63.306,15.9026c34.5878,10.6967,67.8671,24.43,99.1,42.88C641.4889,278.2846,647.18,288.5937,647.6456,300.6689Z" transform="translate(-2.4011 -2.4011)"/><path class="b" d="M312.4455,326.8413c13.5174-.1913,30.7594.5569,47.9626,2.0281a577.8959,577.8959,0,0,1,64.3027,9.1241,532.3121,532.3121,0,0,1,68.94,18.5678,446.0121,446.0121,0,0,1,86.9708,40.4374c17.3711,10.5687,19.7967,33.38,4.9669,46.971a28.7984,28.7984,0,0,1-34.02,3.3819c-9.7968-5.8168-19.7068-11.4092-29.9535-16.397a428.0675,428.0675,0,0,0-74.3584-27.7153A495.1447,495.1447,0,0,0,393.8323,391.73c-16.1792-2.568-32.451-4.3477-48.8036-5.4375a516.9519,516.9519,0,0,0-57.5424-.5868,473.4708,473.4708,0,0,0-55.3353,5.7551,450.9418,450.9418,0,0,0-53.0628,12.2149,29.0179,29.0179,0,0,1-19.4115-54.5895c6.0754-2.5619,12.5632-3.9732,18.9323-5.6558q21.2112-5.6035,42.8627-9.1924,19.9942-3.3322,40.1844-5.1582C277.3052,327.6906,292.9781,326.8951,312.4455,326.8413Z" transform="translate(-2.4011 -2.4011)"/><path class="b" d="M316.5667,448.4488a475.2819,475.2819,0,0,1,56.1432,3.07c57.7579,6.6345,112.02,23.8262,162.0687,53.75,5.146,3.0769,9.613,6.6277,12.0561,12.2974a23.2523,23.2523,0,0,1-33.6966,28.9991,332.6123,332.6123,0,0,0-59.7614-28.7631,367.5784,367.5784,0,0,0-75.0321-18.5653,445.9094,445.9094,0,0,0-49.3191-4.0772,495.0428,495.0428,0,0,0-49.8731,1.236c-17.8327,1.29-35.5511,3.575-53.1947,6.4734-13.82,2.27-27.4739,5.3654-41.2065,8.0688a23.1729,23.1729,0,0,1-9.7194-45.29c13.4148-3.3041,26.9882-5.8676,40.6034-8.1995,20.5725-3.5234,41.2613-6.0915,62.0853-7.5656C290.6547,448.967,303.6,448.4165,316.5667,448.4488Z" transform="translate(-2.4011 -2.4011)"/></svg>