<?xml version="1.0" encoding="utf-8"?>
<!-- Generator: Adobe Illustrator 22.0.1, SVG Export Plug-In . SVG Version: 6.00 Build 0)  -->
<svg version="1.1" id="Layer_1" xmlns="http://www.w3.org/2000/svg" xmlns:xlink="http://www.w3.org/1999/xlink" x="0px" y="0px"
	 viewBox="0 0 743.6 743.6" style="enable-background:new 0 0 743.6 743.6;" xml:space="preserve">
<style type="text/css">
	.st0{fill:#DD3C3C;}
	.st1{fill:#FEFEFE;}
</style>
<title>spotify-logo</title>
<circle class="st0" cx="371.8" cy="371.8" r="371.8"/>
<path class="st1" d="M645.2,298.3c-0.3,21.5-16.8,37-37.1,35.9c-5.4-0.3-10.6-1.8-15.2-4.6c-17.8-10.4-36.4-19.4-55.6-26.7
	c-25.6-9.7-51.9-17.4-78.7-22.9c-13.9-2.9-28-5.4-42.1-7.4c-12.9-1.8-25.8-3.2-38.8-4.3c-25-2.1-50-2.9-75.1-2.4
	c-18.8,0.4-37.6,1.6-56.3,3.6c-26,2.6-51.7,7.3-76.9,13.9c-4.7,1.3-9.3,2.9-14,3.8c-18.4,3.5-36.8-9-40.3-27.4
	c-3.4-18.2,6.8-35.1,24.7-40.4c21.9-6.5,44.2-11.5,66.8-14.9c28.6-4.4,57.4-7.1,86.3-7.9c21.5-0.7,43-0.5,64.5,0.6
	c17.7,0.9,35.3,2.4,52.9,4.5c18.4,2.2,36.7,5.1,54.9,8.7c21.4,4.2,42.5,9.5,63.3,15.9c34.6,10.7,67.9,24.4,99.1,42.9
	C639.1,275.9,644.8,286.2,645.2,298.3z"/>
<path class="st1" d="M310,324.4c13.5-0.2,30.8,0.6,48,2c21.6,1.8,43.1,4.9,64.3,9.1c23.4,4.6,46.4,10.8,68.9,18.6
	c30.4,10.3,59.5,23.9,87,40.4c17.4,10.6,19.8,33.4,5,47c-9.4,8.5-23.2,9.8-34,3.4c-9.8-5.8-19.7-11.4-30-16.4
	c-23.9-11.5-48.8-20.8-74.4-27.7c-17.6-4.8-35.4-8.7-53.4-11.5c-16.2-2.6-32.5-4.3-48.8-5.4c-19.2-1.3-38.4-1.5-57.5-0.6
	c-18.5,0.8-37,2.8-55.3,5.8c-17.9,3-35.6,7.1-53.1,12.2c-15.4,4.5-31.5-4.4-36-19.7c-4.1-14.1,3-29.1,16.6-34.9
	c6.1-2.6,12.6-4,18.9-5.7c14.1-3.7,28.4-6.8,42.9-9.2c13.3-2.2,26.7-3.9,40.2-5.2C274.9,325.3,290.6,324.5,310,324.4z"/>
<path class="st1" d="M314.2,446c18.8-0.1,37.5,0.9,56.1,3.1c57.8,6.6,112,23.8,162.1,53.8c5.1,3.1,9.6,6.6,12.1,12.3
	c5.2,11.8-0.2,25.5-12,30.6c-7.1,3.1-15.2,2.5-21.7-1.6c-18.9-11.6-38.9-21.2-59.8-28.8c-24.3-8.8-49.4-15-75-18.6
	c-16.4-2.3-32.8-3.6-49.3-4.1c-16.6-0.4-33.3,0-49.9,1.2c-17.8,1.3-35.6,3.6-53.2,6.5c-13.8,2.3-27.5,5.4-41.2,8.1
	c-12.6,2.3-24.6-6.1-26.9-18.7c-2.2-12,5.4-23.7,17.2-26.6c13.4-3.3,27-5.9,40.6-8.2c20.6-3.5,41.3-6.1,62.1-7.6
	C288.3,446.6,301.2,446,314.2,446z"/>
</svg>
